# xmcd
#
# Track frame offsets:
#	150
#	13368
#	26604
#	37641
#	51386
#	64493
#	76551
#	91045
#	105511
#	117598
#	129146
#	140548
#	152078
#	166825
#	179238
#	193596
#	202140
#	214973
#	227761
#	240217
#	252009
#	266356
#	277955
#	288938
#	299087
#	309944
#	318834
#	334623
#
# Disc length: 4657 seconds
#
# Revision: 5
# Processed by: cddbd v1.5.2PL0 Copyright (c) Steve Scherf et al.
# Submitted via: audiograbber 1.83.01
#
DISCID=8a122f1c
DTITLE=Nat King Cole (corrected) - The World Of Nat King Cole
DYEAR=2005
DGENRE=Vocal
TTITLE0=Nat King Cole - Smile (1961 version)
TTITLE1=King Cole Trio - It's Only a Paper Moon
TTITLE2=King Cole Trio - Straighten Up and Fly Right
TTITLE3=King Cole Trio - (Get Your Kicks on) Route 66
TTITLE4=King Cole Trio - (I Love You) For Sentimental Reasons
TTITLE5=King Cole Trio - Nature Boy
TTITLE6=Nat King Cole - Too Young
TTITLE7=Nat King Cole - Unforgettable
TTITLE8=Nat King Cole - Walkin' My Baby Back Home
TTITLE9=King Cole Trio and Stan Kenton and his Orch. - Orange Colored Sky
TTITLE10=Nat King Cole and McCoy's Boys - Send for Me
TTITLE11=Nat King Cole - A Blossom Fell
TTITLE12=Nat King Cole and Les Baxter and his Orch. - Mona Lisa
TTITLE13=Nat King Cole - Quizás, Quizás, Quizás (Perhaps, Perhaps, Perhaps)
TTITLE14=Nat King Cole - On the Street Where You Live
TTITLE15=Nat King Cole - Almost Like Being in Love
TTITLE16=Nat King Cole - Darling, Je Vous Aime Beaucoup
TTITLE17=Nat King Cole - Ramblin' Rose
TTITLE18=Nat King Cole and George Shearing Quintet - Let There Be Love
TTITLE19=King Cole Trio - You Stepped out of a Dream
TTITLE20=Nat King Cole - When I Fall in Love
TTITLE21=Nat King Cole - L-O-V-E
TTITLE22=Nat King Cole - Let's Face the Music and Dance
TTITLE23=Nat King Cole - Just One of Those Things
TTITLE24=Nat King Cole - Day In, Day Out
TTITLE25=Nat King Cole - Thou Swell (Live at the Sands)
TTITLE26=Nat King Cole and Natalie Cole - Unforgettable
TTITLE27=Nat King Cole - Stardust
EXTD=Artist names and song titles corrected.
EXTT0=
EXTT1=
EXTT2=
EXTT3=
EXTT4=
EXTT5=
EXTT6=
EXTT7=
EXTT8=
EXTT9=
EXTT10=
EXTT11=
EXTT12=
EXTT13=
EXTT14=
EXTT15=
EXTT16=
EXTT17=
EXTT18=
EXTT19=
EXTT20=
EXTT21=
EXTT22=
EXTT23=
EXTT24=
EXTT25=
EXTT26=
EXTT27=
PLAYORDER=
